<p>Guessed Channel Layout for Input Stream #0.0 : stereo
Input #0, dshow, from 'audio=麦克风 (Realtek High Definition Au':
  Duration: N/A, start: </p><p>4791.385000, bitrate: 1411 kb/s
    Stream #0:0: Audio: pcm_s16le, 44100 Hz, stereo, s16, 1411 kb/s
</p><p>Stream mapping:
  Stream #0:0 -> #0:0 (pcm_s16le (native) -> mp3 (libmp3lame))
Press [q] to stop, [?] for help
</p><p>Output #0, mp3, to 'C:\Users\Administrator\desktop\0000.mp3':
  Metadata:
    TSSE            : Lavf58.6.100
    Stream #0:0: Audio: mp3 (libmp3lame), 44100 Hz, stereo, s16p, 128 kb/s
</p><p>    Metadata:
      encoder         : Lavc58.9.100 libmp3lame
</p><p>size=      15kB time=00:00:00.89 bitrate= 134.5kbits/s speed=1.77x    </p><p>size=      22kB time=00:00:01.39 bitrate= 132.1kbits/s speed=1.38x    </p><p>size=      30kB time=00:00:01.89 bitrate= 131.0kbits/s speed=1.24x    </p><p>size=      38kB time=00:00:02.38 bitrate= 130.5kbits/s speed=1.18x    </p><p>size=      46kB time=00:00:02.88 bitrate= 130.0kbits/s speed=1.14x    </p><p>size=      54kB time=00:00:03.37 bitrate= 129.7kbits/s speed=1.11x    </p><p>size=      62kB time=00:00:03.90 bitrate= 129.5kbits/s speed= 1.1x    </p><p>size=      69kB time=00:00:04.39 bitrate= 129.3kbits/s speed=1.09x    </p><p>size=      77kB time=00:00:04.89 bitrate= 129.2kbits/s speed=1.08x    </p><p>size=      85kB time=00:00:05.39 bitrate= 129.1kbits/s speed=1.07x    </p><p>size=      93kB time=00:00:05.88 bitrate= 129.0kbits/s speed=1.06x    </p><p>size=     100kB time=00:00:06.38 bitrate= 128.9kbits/s speed=1.05x    </p><p>size=     108kB time=00:00:06.87 bitrate= 128.9kbits/s speed=1.05x    </p><p>size=     116kB time=00:00:07.40 bitrate= 128.8kbits/s speed=1.05x    </p><p>size=     124kB time=00:00:07.89 bitrate= 128.7kbits/s speed=1.04x    </p><p>size=     132kB time=00:00:08.39 bitrate= 128.7kbits/s speed=1.04x    </p><p>size=     140kB time=00:00:08.89 bitrate= 128.7kbits/s speed=1.04x    </p><p>size=     147kB time=00:00:09.38 bitrate= 128.6kbits/s speed=1.04x    </p><p>size=     155kB time=00:00:09.88 bitrate= 128.6kbits/s speed=1.03x    </p><p>size=     163kB time=00:00:10.37 bitrate= 128.6kbits/s speed=1.03x    </p><p>size=     171kB time=00:00:10.90 bitrate= 128.5kbits/s speed=1.03x    </p><p>size=     179kB time=00:00:11.39 bitrate= 128.5kbits/s speed=1.03x    </p><p>size=     187kB time=00:00:11.89 bitrate= 128.5kbits/s speed=1.03x    </p><p>size=     194kB time=00:00:12.39 bitrate= 128.5kbits/s speed=1.03x    </p><p>size=     202kB time=00:00:12.88 bitrate= 128.5kbits/s speed=1.02x    </p><p>size=     210kB time=00:00:13.38 bitrate= 128.4kbits/s speed=1.02x    </p><p>size=     218kB time=00:00:13.88 bitrate= 128.4kbits/s speed=1.02x    </p><p>size=     226kB time=00:00:14.40 bitrate= 128.4kbits/s speed=1.02x    </p><p>size=     234kB time=00:00:14.89 bitrate= 128.4kbits/s speed=1.02x    </p><p>size=     241kB time=00:00:15.39 bitrate= 128.4kbits/s speed=1.02x    </p><p>size=     249kB time=00:00:15.89 bitrate= 128.4kbits/s speed=1.02x    </p><p>size=     256kB time=00:00:16.38 bitrate= 128.0kbits/s speed=1.02x    </p><p>size=     256kB time=00:00:16.88 bitrate= 124.2kbits/s speed=1.02x    </p><p>size=     256kB time=00:00:17.38 bitrate= 120.7kbits/s speed=1.01x    </p><p>size=     256kB time=00:00:17.90 bitrate= 117.1kbits/s speed=1.02x    </p><p>size=     256kB time=00:00:18.40 bitrate= 114.0kbits/s speed=1.01x    </p><p>size=     256kB time=00:00:18.89 bitrate= 111.0kbits/s speed=1.01x    </p><p>size=     256kB time=00:00:19.39 bitrate= 108.1kbits/s speed=1.01x    </p><p>size=     256kB time=00:00:19.88 bitrate= 105.4kbits/s speed=1.01x    </p><p>size=     256kB time=00:00:20.38 bitrate= 102.9kbits/s speed=1.01x    </p><p>size=     256kB time=00:00:20.88 bitrate= 100.4kbits/s speed=1.01x    </p><p>size=     256kB time=00:00:21.40 bitrate=  98.0kbits/s speed=1.01x    </p><p>size=     256kB time=00:00:21.89 bitrate=  95.8kbits/s speed=1.01x    </p><p>size=     256kB time=00:00:22.39 bitrate=  93.6kbits/s speed=1.01x    </p><p>size=     256kB time=00:00:22.89 bitrate=  91.6kbits/s speed=1.01x    </p><p>size=     256kB time=00:00:23.38 bitrate=  89.7kbits/s speed=1.01x    </p><p>size=     256kB time=00:00:23.88 bitrate=  87.8kbits/s speed=1.01x    </p><p>size=     256kB time=00:00:24.38 bitrate=  86.0kbits/s speed=1.01x    </p><p>size=     256kB time=00:00:24.90 bitrate=  84.2kbits/s speed=1.01x    </p><p>size=     256kB time=00:00:25.40 bitrate=  82.6kbits/s speed=1.01x    </p><p>size=     256kB time=00:00:25.89 bitrate=  81.0kbits/s speed=1.01x    </p><p>size=     256kB time=00:00:26.39 bitrate=  79.5kbits/s speed=1.01x    </p><p>size=     256kB time=00:00:26.88 bitrate=  78.0kbits/s speed=1.01x    </p><p>size=     256kB time=00:00:27.38 bitrate=  76.6kbits/s speed=1.01x    </p><p>size=     256kB time=00:00:27.88 bitrate=  75.2kbits/s speed=1.01x    </p><p>size=     256kB time=00:00:28.40 bitrate=  73.8kbits/s speed=1.01x    </p><p>size=     256kB time=00:00:28.90 bitrate=  72.6kbits/s speed=1.01x    </p><p>size=     256kB time=00:00:29.39 bitrate=  71.3kbits/s speed=1.01x    </p><p>size=     256kB time=00:00:29.89 bitrate=  70.2kbits/s speed=   1x    </p><p>size=     256kB time=00:00:30.38 bitrate=  69.0kbits/s speed=   1x    </p><p>size=     256kB time=00:00:30.88 bitrate=  67.9kbits/s speed=   1x    </p><p>size=     256kB time=00:00:31.38 bitrate=  66.8kbits/s speed=   1x    </p><p>size=     256kB time=00:00:31.90 bitrate=  65.7kbits/s speed=   1x    </p><p>size=     256kB time=00:00:32.40 bitrate=  64.7kbits/s speed=   1x    </p><p>size=     512kB time=00:00:32.89 bitrate= 127.5kbits/s speed=   1x    </p><p>size=     512kB time=00:00:33.39 bitrate= 125.6kbits/s speed=   1x    </p><p>size=     512kB time=00:00:33.88 bitrate= 123.8kbits/s speed=   1x    </p><p>size=     512kB time=00:00:34.38 bitrate= 122.0kbits/s speed=   1x    </p><p>size=     512kB time=00:00:34.88 bitrate= 120.2kbits/s speed=   1x    </p><p>size=     512kB time=00:00:35.37 bitrate= 118.6kbits/s speed=   1x    </p><p>size=     512kB time=00:00:35.90 bitrate= 116.8kbits/s speed=   1x    </p><p>size=     512kB time=00:00:36.39 bitrate= 115.2kbits/s speed=   1x    </p><p>size=     512kB time=00:00:36.89 bitrate= 113.7kbits/s speed=   1x    </p><p>size=     512kB time=00:00:37.39 bitrate= 112.2kbits/s speed=   1x    </p><p>size=     512kB time=00:00:37.88 bitrate= 110.7kbits/s speed=   1x    </p><p>size=     512kB time=00:00:38.38 bitrate= 109.3kbits/s speed=   1x    </p><p>size=     512kB time=00:00:38.87 bitrate= 107.9kbits/s speed=   1x    </p><p>size=     512kB time=00:00:39.40 bitrate= 106.4kbits/s speed=   1x    </p><p>size=     512kB time=00:00:39.89 bitrate= 105.1kbits/s speed=   1x    </p><p>size=     512kB time=00:00:40.39 bitrate= 103.8kbits/s speed=   1x    </p><p>size=     512kB time=00:00:40.89 bitrate= 102.6kbits/s speed=   1x    </p><p>size=     512kB time=00:00:41.38 bitrate= 101.3kbits/s speed=   1x    </p><p>size=     512kB time=00:00:41.88 bitrate= 100.1kbits/s speed=   1x    </p><p>size=     512kB time=00:00:42.37 bitrate=  99.0kbits/s speed=   1x    </p><p>size=     512kB time=00:00:42.90 bitrate=  97.8kbits/s speed=   1x    </p><p>size=     680kB time=00:00:43.50 bitrate= 128.1kbits/s speed=1.01x    
video:0kB audio:680kB subtitle:0kB other streams:0kB global headers:0kB muxing overhead: 0.066205%
</p>